<?xml version="1.0" standalone="no"?><!DOCTYPE svg PUBLIC "-//W3C//DTD SVG 1.1//EN" "http://www.w3.org/Graphics/SVG/1.1/DTD/svg11.dtd"><svg t="1559024087724" class="icon" style="" viewBox="0 0 1024 1024" version="1.1" xmlns="http://www.w3.org/2000/svg" p-id="5671" xmlns:xlink="http://www.w3.org/1999/xlink" width="200" height="200"><defs><style type="text/css"></style></defs><path d="M17.365 458.412H1024v500H17.365zM388.773 438.412l-100-100.001H175.044l100 100.001zM616.229 438.412l-100-100.001H402.5l100 100.001zM843.686 438.412l-100-100.001H629.957l100 100.001zM857.414 338.411l100 100.001H1024V338.411zM161.316 438.412l-100-100.001H17.365v100.001zM833.463 92.969l-112 19.749-81.117 115.845 112.002-19.749zM609.463 132.466l-112 19.749-81.115 115.846 111.998-19.749zM385.463 171.964l-112.002 19.748-81.116 115.846 112.001-19.749z" p-id="5672"></path><path d="M80.344 327.307l81.116-115.846L0 239.931l17.365 98.48zM988.748 65.588l-43.285 7.632-81.115 115.845 141.763-24.997z" p-id="5673"></path></svg>