<?xml version="1.0" standalone="no"?><!DOCTYPE svg PUBLIC "-//W3C//DTD SVG 1.1//EN" "http://www.w3.org/Graphics/SVG/1.1/DTD/svg11.dtd"><svg t="1559017348955" class="icon" style="" viewBox="0 0 1024 1024" version="1.1" xmlns="http://www.w3.org/2000/svg" p-id="5130" xmlns:xlink="http://www.w3.org/1999/xlink" width="200" height="200"><defs><style type="text/css"></style></defs><path d="M587.392 970.4832 51.072 970.4832 51.072 25.536C51.072 11.4944 39.5904 0 25.536 0S0 11.4944 0 25.536l0 970.4832c0 14.0416 11.4944 25.536 25.536 25.536L587.392 1021.5552c14.0416 0 25.536-11.4944 25.536-25.536C612.9408 981.9776 601.4464 970.4832 587.392 970.4832z" p-id="5131"></path><path d="M189.3504 725.6704c15.8592-15.8592 18.8928-39.488 9.5232-58.56l108.5056-233.0368c12.7616-0.2304 25.4592-5.1328 35.2-14.8736 3.2128-3.2128 5.7216-6.8224 7.8976-10.5728l243.9808 0c2.176 3.7504 4.6848 7.36 7.8976 10.5728 19.9424 19.9424 52.288 19.9424 72.2304 0 12.1728-12.1728 16.8192-28.9408 14.1312-44.7104l243.1616-248.704c17.0112 4.4928 35.8272 0.2816 49.1648-13.056 19.9424-19.9424 19.9424-52.288 0-72.2304-19.9424-19.9424-52.288-19.9424-72.2304 0-13.3376 13.3376-17.5488 32.1536-13.056 49.1648L655.744 335.168c-18.0352-6.4768-38.9376-2.6496-53.3888 11.8016-3.2128 3.2128-5.7216 6.8224-7.8976 10.5728L350.4768 357.5424c-2.176-3.7504-4.6848-7.36-7.8976-10.5728-19.9424-19.9424-52.288-19.9424-72.2304 0-16.8576 16.8576-19.3024 42.496-7.6672 62.0928l-106.9312 229.6448c-13.9008-0.6912-28.0192 4.096-38.6432 14.72-19.9424 19.9424-19.9424 52.288 0 72.2304S169.408 745.6128 189.3504 725.6704z" p-id="5132"></path><path d="M1016.512 979.6992l-125.2992-125.2992c33.5488-41.6128 53.7216-94.464 53.7216-152.0768 0-133.9904-108.6208-242.624-242.624-242.624S459.6992 568.32 459.6992 702.3104 568.32 944.9344 702.3104 944.9344c57.9712 0 111.1552-20.4032 152.8832-54.3232l125.1968 125.1968c4.9792 4.992 11.52 7.488 18.0608 7.488s13.0688-2.496 18.0608-7.488C1026.496 1005.8496 1026.496 989.6704 1016.512 979.6992zM510.7712 702.3104c0-105.6128 85.9264-191.5392 191.5392-191.5392s191.5392 85.9264 191.5392 191.5392S807.936 893.8624 702.3104 893.8624 510.7712 807.936 510.7712 702.3104z" p-id="5133"></path></svg>