<?xml version="1.0" standalone="no"?><!DOCTYPE svg PUBLIC "-//W3C//DTD SVG 1.1//EN" "http://www.w3.org/Graphics/SVG/1.1/DTD/svg11.dtd"><svg t="1566376274252" class="icon" viewBox="0 0 1024 1024" version="1.1" xmlns="http://www.w3.org/2000/svg" p-id="2039" xmlns:xlink="http://www.w3.org/1999/xlink" width="200" height="200"><defs><style type="text/css"></style></defs><path d="M841 812V468c0-165-135-300-300-300h-56c-165 0-300 135-300 300v344H82v50h860v-50H841z m-606 0V468c0-33.6 6.6-66.2 19.7-96.9 12.6-29.8 30.7-56.5 53.8-79.6 23-23 49.8-41.1 79.6-53.8 30.8-13.1 63.4-19.7 96.9-19.7h56c33.6 0 66.2 6.6 96.9 19.7 29.8 12.6 56.5 30.7 79.6 53.8s41.1 49.8 53.8 79.6c13.1 30.8 19.7 63.4 19.7 96.9v344H235z m177 76h200v50H412v-50z m62.1-739.8c-23.9 0.9-47 4.5-69.2 10.7C421.7 116.2 463.3 86 512 86c48.4 0 89.9 29.9 106.8 72.3-22.1-6-45.3-9.5-69.1-10.2C539 140.5 526 136 511.9 136c-14 0-27.1 4.5-37.8 12.2z" fill="" p-id="2040"></path></svg>