<?xml version="1.0" standalone="no"?><!DOCTYPE svg PUBLIC "-//W3C//DTD SVG 1.1//EN" "http://www.w3.org/Graphics/SVG/1.1/DTD/svg11.dtd"><svg t="1594537275540" class="icon" viewBox="0 0 1024 1024" version="1.1" xmlns="http://www.w3.org/2000/svg" p-id="13493" xmlns:xlink="http://www.w3.org/1999/xlink" width="200" height="200"><defs><style type="text/css"></style></defs><path d="M360.832427 384H149.035093a21.333333 21.333333 0 0 0 0 42.666667h211.754667a21.333333 21.333333 0 0 0 0.042667-42.666667zM360.832427 512H149.035093a21.333333 21.333333 0 0 0 0 42.666667h211.754667a21.333333 21.333333 0 0 0 0.042667-42.666667zM360.832427 640H149.035093a21.333333 21.333333 0 0 0 0 42.666667h211.754667a21.333333 21.333333 0 0 0 0.042667-42.666667zM872.363093 384H661.760427a21.333333 21.333333 0 0 0 0 42.666667h210.602666a21.333333 21.333333 0 0 0 0-42.666667zM872.363093 512H661.760427a21.333333 21.333333 0 0 0 0 42.666667h210.602666a21.333333 21.333333 0 0 0 0-42.666667zM872.363093 640H661.760427a21.333333 21.333333 0 0 0 0 42.666667h210.602666a21.333333 21.333333 0 0 0 0-42.666667z" p-id="13494"></path><path d="M755.115093 161.237333c-100.650667 0-201.813333 16.426667-244.608 52.053334-42.794667-35.669333-143.957333-52.053333-244.565333-52.053334C133.547093 161.237333 0.000427 189.525333 0.000427 252.8v625.408a21.248 21.248 0 0 0 26.965333 20.565333c38.357333-10.496 141.098667-18.432 238.976-18.432 87.082667 0 149.717333 6.357333 241.706667 18.944 0.981333 0.128 1.92-0.213333 2.901333-0.213333s1.92 0.341333 2.901333 0.213333c91.989333-12.586667 154.666667-18.944 241.749334-18.944 97.834667 0 200.533333 7.936 238.933333 18.432a21.077333 21.077333 0 0 0 18.602667-3.626666 21.290667 21.290667 0 0 0 8.362666-16.938667V252.8c-0.085333-63.274667-133.632-91.562667-265.984-91.562667zM42.667093 851.925333V252.842667c1.536-14.634667 79.317333-48.938667 223.232-48.938667s221.738667 34.304 223.232 48.896v601.002667c-81.152-10.709333-141.610667-16.128-223.232-16.128-72.448 0.042667-165.973333 4.522667-223.232 14.250666z m935.68 0c-57.258667-9.728-150.741333-14.208-223.189333-14.208-81.621333 0-142.08 5.418667-223.274667 16.128V252.842667c1.536-14.634667 79.36-48.938667 223.274667-48.938667s221.696 34.304 223.189333 48.896v599.125333z" p-id="13495"></path></svg>