<?xml version="1.0" standalone="no"?><!DOCTYPE svg PUBLIC "-//W3C//DTD SVG 1.1//EN" "http://www.w3.org/Graphics/SVG/1.1/DTD/svg11.dtd"><svg t="1558608772895" class="icon" style="" viewBox="0 0 1024 1024" version="1.1" xmlns="http://www.w3.org/2000/svg" p-id="3626" xmlns:xlink="http://www.w3.org/1999/xlink" width="200" height="200"><defs><style type="text/css"></style></defs><path d="M925.803537 129.255853 412.010705 648.076188l-250.76937-253.258051c-7.313569-7.363711-19.116383-7.363711-26.426883 0-7.313569 7.382131-7.313569 19.324114 0 26.685779l263.962857 266.602987c3.524267 3.536546 8.250918 5.529947 13.210883 5.529947s9.712199-1.992377 13.214976-5.529947l527.026228-532.165272c7.287987-7.386224 7.287987-19.298532 0-26.685779C944.918897 121.868605 933.090501 121.868605 925.803537 129.255853L925.803537 129.255853 925.803537 129.255853zM869.446995 842.554508c0 16.853853-13.964036 30.580482-31.104415 30.580482L132.748397 873.13499c-17.144472 0-31.131021-13.726629-31.131021-30.580482L101.617375 142.435013c0-16.859993 13.96506-30.582529 31.131021-30.582529l675.498748 0L808.247144 74.124208 132.748397 74.124208c-37.785581 0-68.490907 30.653137-68.490907 68.310805l0 700.119495c0 37.651528 30.705326 68.307735 68.490907 68.307735l705.594183 0c37.759999 0 68.465325-30.656207 68.465325-68.307735L906.807904 371.522572l-37.360909 0L869.446995 842.554508 869.446995 842.554508 869.446995 842.554508zM869.446995 842.554508" p-id="3627"></path></svg>