<?xml version="1.0" standalone="no"?><!DOCTYPE svg PUBLIC "-//W3C//DTD SVG 1.1//EN" "http://www.w3.org/Graphics/SVG/1.1/DTD/svg11.dtd">
<svg class="icon" width="200px" height="200.00px" viewBox="0 0 1024 1024" version="1.1" xmlns="http://www.w3.org/2000/svg"><path d="M517.488 215.28m-105.424 0a6.589 6.589 0 1 0 210.848 0 6.589 6.589 0 1 0-210.848 0ZM706.272 209.696c0.864 15.696-0.848 30.96-4.704 45.392 9.472 2.224 19.392 3.184 29.616 2.608 58.128-3.168 102.688-52.896 99.488-111.024C827.52 88.56 777.792 44 719.68 47.184c-34.448 1.904-64.016 20.144-81.808 46.768C676.704 118.304 703.584 160.512 706.272 209.696zM808.144 325.04l-112.064 0c-3.856 8.032-8.336 15.712-13.52 22.832 49.456 17.616 84.96 64.896 84.96 120.304l0 150.896c0 48.448-26.64 91.12-67.696 112.768l0 158.048c0 9.024-0.96 17.84-2.736 26.304 8.768 2.976 18.144 4.656 27.888 4.656l15.472 0c48.08 0 87.056-38.992 87.056-87.072L827.504 647.792c38.752-8.8 67.696-43.392 67.696-84.816l0-150.88C895.184 364.016 856.224 325.04 808.144 325.04zM282.704 266.432c12.128 1.36 23.952 0.48 35.2-2.096-5.936-18.784-8.224-39.056-5.904-59.84 5.072-45.392 30.528-83.632 66.224-106.64-16.864-22.128-42.336-37.664-72.176-40.976-57.888-6.448-110 35.264-116.448 93.12C183.152 207.872 224.832 259.984 282.704 266.432zM327.376 731.84c-41.088-21.632-67.712-64.32-67.712-112.752l0-150.896c0-55.408 35.504-102.688 84.96-120.304-1.744-2.384-3.344-4.864-4.928-7.36l-120.672 0c-48.064 0-87.056 38.976-87.056 87.056l0 150.88c0 41.424 28.96 76.016 67.712 84.832L199.68 849.28c0 48.08 38.976 87.056 87.056 87.056l15.472 0c11.216 0 21.888-2.192 31.712-6.064-4.224-12.688-6.56-26.256-6.56-40.368L327.36 731.84zM680 619.088l0-150.896c0-48.08-38.976-87.04-87.056-87.04l-79.232 146-71.664-146c-48.08 0-87.056 38.96-87.056 87.04l0 150.896c0 41.424 28.96 76 67.696 84.816l0 186.016c0 48.08 38.992 87.072 87.056 87.072l15.472 0c48.08 0 87.056-38.976 87.056-87.072L612.272 703.888C651.024 695.088 680 660.512 680 619.088zM649.184 537.072l-31.728 0 0 31.76-26.048 0 0-31.76-31.744 0 0-26.032 31.744 0 0-31.728 26.048 0 0 31.728 31.728 0L649.184 537.072z" /></svg>