<?xml version="1.0" standalone="no"?><!DOCTYPE svg PUBLIC "-//W3C//DTD SVG 1.1//EN" "http://www.w3.org/Graphics/SVG/1.1/DTD/svg11.dtd">
<svg class="icon" width="200px" height="200.00px" viewBox="0 0 1024 1024" version="1.1" xmlns="http://www.w3.org/2000/svg">
<path  
d="M640 1024H256c-70.656 0-128-57.344-128-128V128C128 57.344 185.344 0 256 0h512c70.656 0 128 57.344 128 128v537.6c0 28.672-22.528 51.2-51.2 51.2h-128c-14.336 0-25.6 11.264-25.6 25.6v230.4c0 28.672-22.528 51.2-51.2 51.2zM256 51.2c-42.496 0-76.8 34.304-76.8 76.8v768c0 42.496 34.304 76.8 76.8 76.8h384v-230.4c0-42.496 34.304-76.8 76.8-76.8h128V128c0-42.496-34.304-76.8-76.8-76.8H256z"  /><path fill="#1296db" d="M635.4432 978.06336l207.3088-309.73952 42.5472 28.47744-207.3088 309.73952zM768 281.6H256c-14.336 0-25.6-11.264-25.6-25.6s11.264-25.6 25.6-25.6h512c14.336 0 25.6 11.264 25.6 25.6s-11.264 25.6-25.6 25.6zM768 435.2H256c-14.336 0-25.6-11.264-25.6-25.6s11.264-25.6 25.6-25.6h512c14.336 0 25.6 11.264 25.6 25.6s-11.264 25.6-25.6 25.6zM768 588.8H256c-14.336 0-25.6-11.264-25.6-25.6s11.264-25.6 25.6-25.6h512c14.336 0 25.6 11.264 25.6 25.6s-11.264 25.6-25.6 25.6zM563.2 742.4H256c-14.336 0-25.6-11.264-25.6-25.6s11.264-25.6 25.6-25.6h307.2c14.336 0 25.6 11.264 25.6 25.6s-11.264 25.6-25.6 25.6z"  /></svg>